<?xml version="1.0" encoding="UTF-8" standalone="no"?>
<!-- Created with Inkscape (http://www.inkscape.org/) -->

<svg
   width="240"
   height="240"
   viewBox="0 0 240 240"
   id="svg2"
   version="1.1"
   inkscape:version="1.1 (c68e22c387, 2021-05-23)"
   sodipodi:docname="IT.svg"
   inkscape:export-filename="C:\Users\Familia\Google Drive\itops_logo5.png"
   inkscape:export-xdpi="90"
   inkscape:export-ydpi="90"
   xmlns:inkscape="http://www.inkscape.org/namespaces/inkscape"
   xmlns:sodipodi="http://sodipodi.sourceforge.net/DTD/sodipodi-0.dtd"
   xmlns="http://www.w3.org/2000/svg"
   xmlns:svg="http://www.w3.org/2000/svg"
   xmlns:rdf="http://www.w3.org/1999/02/22-rdf-syntax-ns#"
   xmlns:cc="http://creativecommons.org/ns#"
   xmlns:dc="http://purl.org/dc/elements/1.1/">
  <title
     id="title6696">OPS</title>
  <defs
     id="defs4">
    <clipPath
       clipPathUnits="userSpaceOnUse"
       id="clipPath4951">
      <rect
         style="fill:#f7ec1d;fill-opacity:1;stroke:#f7ec1d;stroke-width:0.51675308;stroke-miterlimit:4;stroke-dasharray:none;stroke-opacity:1"
         id="rect4953"
         width="71.853302"
         height="11.881018"
         x="-54.862778"
         y="-0.98569524"
         transform="matrix(-0.99998905,0.00468074,0.00451279,0.99998982,0,0)"
         ry="0" />
    </clipPath>
    <clipPath
       clipPathUnits="userSpaceOnUse"
       id="clipPath4951-3">
      <rect
         style="fill:#f7ec1d;fill-opacity:1;stroke:#f7ec1d;stroke-width:0.51675308;stroke-miterlimit:4;stroke-dasharray:none;stroke-opacity:1"
         id="rect4953-8"
         width="71.853302"
         height="11.881018"
         x="-54.862778"
         y="-0.98569524"
         transform="matrix(-0.99998905,0.00468074,0.00451279,0.99998982,0,0)"
         ry="0" />
    </clipPath>
    <clipPath
       clipPathUnits="userSpaceOnUse"
       id="clipPath5627-1">
      <ellipse
         style="fill:#ff0000;fill-opacity:1;stroke:none;stroke-width:2;stroke-miterlimit:4;stroke-dasharray:none;stroke-opacity:1"
         id="circle5629-5"
         cx="20.029408"
         cy="-5.1953678"
         rx="16.770483"
         ry="17.079678"
         transform="matrix(0.99999427,-0.00338381,0.0032624,0.99999468,0,0)" />
    </clipPath>
    <clipPath
       clipPathUnits="userSpaceOnUse"
       id="clipPath5627-0">
      <ellipse
         style="fill:#ff0000;fill-opacity:1;stroke:none;stroke-width:2;stroke-miterlimit:4;stroke-dasharray:none;stroke-opacity:1"
         id="circle5629-52"
         cx="20.029408"
         cy="-5.1953678"
         rx="16.770483"
         ry="17.079678"
         transform="matrix(0.99999427,-0.00338381,0.0032624,0.99999468,0,0)" />
    </clipPath>
    <clipPath
       clipPathUnits="userSpaceOnUse"
       id="clipPath5627-8">
      <ellipse
         style="fill:#ff0000;fill-opacity:1;stroke:none;stroke-width:2;stroke-miterlimit:4;stroke-dasharray:none;stroke-opacity:1"
         id="circle5629-4"
         cx="20.029408"
         cy="-5.1953678"
         rx="16.770483"
         ry="17.079678"
         transform="matrix(0.99999427,-0.00338381,0.0032624,0.99999468,0,0)" />
    </clipPath>
    <clipPath
       clipPathUnits="userSpaceOnUse"
       id="clipPath403">
      <ellipse
         style="fill:#ff0000;fill-opacity:1;stroke:none;stroke-width:2.1945;stroke-miterlimit:4;stroke-dasharray:none;stroke-opacity:1"
         id="ellipse405"
         cx="18.271421"
         cy="2.8349206"
         rx="18.409567"
         ry="18.732338"
         transform="matrix(0.99999303,-0.0037332,0.00299607,0.99999551,0,0)" />
    </clipPath>
  </defs>
  <sodipodi:namedview
     id="base"
     pagecolor="#ffffff"
     bordercolor="#666666"
     borderopacity="1.0"
     inkscape:pageopacity="0.0"
     inkscape:pageshadow="2"
     inkscape:zoom="1.979899"
     inkscape:cx="59.851539"
     inkscape:cy="144.19928"
     inkscape:document-units="px"
     inkscape:current-layer="layer1"
     showgrid="false"
     units="px"
     inkscape:window-width="1920"
     inkscape:window-height="1017"
     inkscape:window-x="-8"
     inkscape:window-y="32"
     inkscape:window-maximized="1"
     inkscape:pagecheckerboard="0" />
  <metadata
     id="metadata7">
    <rdf:RDF>
      <cc:Work
         rdf:about="">
        <dc:format>image/svg+xml</dc:format>
        <dc:type
           rdf:resource="http://purl.org/dc/dcmitype/StillImage" />
        <dc:title>OPS</dc:title>
        <dc:date>3/4/2017</dc:date>
        <dc:creator>
          <cc:Agent>
            <dc:title>Noel Lopez</dc:title>
          </cc:Agent>
        </dc:creator>
        <dc:rights>
          <cc:Agent>
            <dc:title>free</dc:title>
          </cc:Agent>
        </dc:rights>
        <dc:publisher>
          <cc:Agent>
            <dc:title>Noel Lopez</dc:title>
          </cc:Agent>
        </dc:publisher>
        <dc:language>English</dc:language>
        <dc:subject>
          <rdf:Bag>
            <rdf:li>Operations</rdf:li>
          </rdf:Bag>
        </dc:subject>
        <dc:description>Logo to represent IT operations</dc:description>
        <dc:contributor>
          <cc:Agent>
            <dc:title />
          </cc:Agent>
        </dc:contributor>
      </cc:Work>
    </rdf:RDF>
  </metadata>
  <g
     inkscape:label="Layer 1"
     inkscape:groupmode="layer"
     id="layer1"
     transform="translate(0,-812.36216)">
    <circle
       style="fill:#0072c6;fill-opacity:1;stroke:#f2f2f2;stroke-width:4.99166584;stroke-miterlimit:4;stroke-dasharray:none;stroke-opacity:1"
       id="path4838"
       cx="391.03101"
       cy="854.86487"
       r="86.560242"
       transform="matrix(0.9550392,0.29647954,-0.29647954,0.9550392,0,0)" />
    <g
       style="fill:none;fill-opacity:1;stroke:#ffffff;stroke-width:0.83873;stroke-miterlimit:4;stroke-dasharray:none;stroke-opacity:1"
       id="g4880"
       transform="matrix(4.2986366,1.3483859,-1.1796575,3.7504157,38.370633,909.36864)"
       clip-path="url(#clipPath403)">
      <path
         transform="matrix(0.046617,0,0,0.048167,-1.8465,-8.347)"
         inkscape:connector-curvature="0"
         style="fill:none;fill-opacity:1;stroke:#ffffff;stroke-width:17.7001;stroke-miterlimit:4;stroke-dasharray:none;stroke-opacity:1"
         d="m 886.77,607.54 a 416.04,410.28 0 1 1 -832.07,0 416.04,410.28 0 1 1 832.07,0 z"
         id="path1061" />
      <path
         transform="matrix(0.029496,0,0,0.048167,6.0631,-8.347)"
         inkscape:connector-curvature="0"
         style="fill:none;fill-opacity:1;stroke:#ffffff;stroke-width:22.2518;stroke-miterlimit:4;stroke-dasharray:none;stroke-opacity:1"
         d="m 886.77,607.54 a 416.04,410.28 0 1 1 -832.07,0 416.04,410.28 0 1 1 832.07,0 z"
         id="path2925" />
      <path
         transform="matrix(0.051971,0,0,0.05442,0.72029,-7.8376)"
         inkscape:connector-curvature="0"
         style="fill:none;fill-opacity:1;stroke:#ffffff;stroke-width:15.7711;stroke-miterlimit:4;stroke-dasharray:none;stroke-opacity:1"
         d="m 371.41,162.71 -5.76,728.42"
         id="path2926" />
      <path
         transform="matrix(0.051971,0,0,0.05442,0.72029,-7.8376)"
         inkscape:connector-curvature="0"
         style="fill:none;fill-opacity:1;stroke:#ffffff;stroke-width:15.7711;stroke-miterlimit:4;stroke-dasharray:none;stroke-opacity:1"
         d="m -3.1808,525.95 744.3,-3.18"
         id="path4169" />
      <path
         transform="matrix(0.051971,0,0,0.05442,0.72029,-7.8376)"
         inkscape:connector-curvature="0"
         style="fill:none;fill-opacity:1;stroke:#ffffff;stroke-width:15.7711;stroke-miterlimit:4;stroke-dasharray:none;stroke-opacity:1"
         d="m 50.448,343.05 638.63,-3.18"
         id="path4791" />
      <path
         transform="matrix(0.051971,0,0,0.05442,0.72029,-7.8376)"
         inkscape:connector-curvature="0"
         style="fill:none;fill-opacity:1;stroke:#ffffff;stroke-width:15.7711;stroke-miterlimit:4;stroke-dasharray:none;stroke-opacity:1"
         d="m 53.629,719.97 638.63,-3.18"
         id="path4792" />
    </g>
    <text
       xml:space="preserve"
       style="font-style:normal;font-variant:normal;font-weight:bold;font-stretch:normal;font-size:84.5857px;line-height:1000%;font-family:'Bell MT';-inkscape-font-specification:'Bell MT, Bold';text-align:start;letter-spacing:0px;word-spacing:0px;writing-mode:lr-tb;text-anchor:start;fill:#ffffff;fill-opacity:1;stroke:none;stroke-width:1;stroke-linecap:butt;stroke-linejoin:miter;stroke-miterlimit:4;stroke-dasharray:none;stroke-opacity:1"
       x="78.534088"
       y="745.62201"
       id="text5949"
       transform="scale(0.7932307,1.2606673)"><tspan
         sodipodi:role="line"
         id="tspan5951"
         x="78.534088"
         y="745.62201"
         style="font-style:normal;font-variant:normal;font-weight:bold;font-stretch:normal;font-size:84.5857px;line-height:1000%;font-family:'Bell MT';-inkscape-font-specification:'Bell MT, Bold';text-align:start;writing-mode:lr-tb;text-anchor:start;fill:#ffffff;stroke:none;stroke-width:1;stroke-miterlimit:4;stroke-dasharray:none;stroke-opacity:1" /></text>
    <path
       inkscape:connector-curvature="0"
       id="path2125"
       style="fill:#cccccc;fill-opacity:1;stroke:none;stroke-width:0"
       d="m 117.37645,811.57705 -0.92261,0.14529 -0.92263,0 -0.92258,0 -0.92265,0 -0.92261,0.17122 -0.92258,0 -0.92263,0.14529 -0.92266,0 -0.92258,0.17123 -1.09562,0.14529 -0.92258,0 -0.92263,0.14543 -0.92263,0.17121 -1.06674,0.14529 1.84522,12.94539 -1.09557,0.14544 -0.92263,0.14529 -0.92257,0.14528 -0.92265,0.17648 -0.77844,0.14546 -0.92262,0.14528 -0.893785,0.17121 -0.778478,0.14528 -0.922582,0.14529 -0.778497,0.31663 -0.922582,0.14529 -0.77848,0.14528 -0.922647,0.17652 -0.778433,0.14528 -0.749615,0.31662 -0.922646,0.14528 -0.778432,0.31664 -0.778433,0.14529 -0.92263,0.31663 -0.778432,0.14529 -0.749656,0.31661 -0.951447,0.14529 -0.749567,0.31662 -0.749647,0.31664 -0.951416,0.2855 -0.749584,0.31661 -0.951447,0.31662 -0.749631,0.31663 -0.922583,0.28549 -0.922614,0.46196 -0.92263,0.31664 -0.778434,0.46194 -5.247417,-12.1673 -0.922583,0.46197 -0.922613,0.46197 -0.922647,0.28548 -0.922583,0.48791 -0.92263,0.46197 -0.922614,0.46196 -0.922582,0.46195 -0.922631,0.46198 -0.922646,0.46198 -0.922583,0.46195 -0.77848,0.46196 -0.922582,0.60573 -0.922616,0.46198 -0.922646,0.46196 -0.778432,0.46198 -0.92263,0.63428 -0.922584,0.46198 -0.74963,0.60521 -0.922631,0.46195 -0.922646,0.60526 -0.778432,0.63427 -0.922631,0.46197 -0.922614,0.60574 -0.778432,0.6343 -0.922646,0.60523 -0.778434,0.60574 -0.92263,0.60523 -0.778431,0.63428 -0.922631,0.7786 -0.922583,0.60522 -0.749631,0.77861 -0.922631,0.60521 8.159429,10.00491 -0.634283,0.46198 -0.605497,0.46195 -0.461443,0.46197 -0.634283,0.60522 -0.605497,0.48791 -0.605433,0.43083 -0.634282,0.63376 -0.461443,0.46198 -0.605498,0.60573 -0.605481,0.46197 -0.634299,0.63429 -0.605416,0.46196 -0.461459,0.60576 -0.605482,0.60523 -0.634297,0.63429 -0.605481,0.46195 -0.6343,0.60524 -0.43237,0.60574 -0.634298,0.6343 -0.605481,0.74951 -0.634298,0.6343 -0.605418,0.60524 -0.605496,0.77858 -0.461443,0.60575 -0.634283,0.77859 -0.605497,0.60524 -0.60545,0.77857 -0.63433,0.74954 -0.605433,0.77858 -0.461443,0.77808 -0.634282,0.77859 -0.605497,0.77859 -10.322221,-7.55441 -0.461443,0.77858 -0.461427,0.60574 -0.605497,0.7786 -0.461443,0.74954 -0.461443,0.60573 -0.490004,0.77807 -0.43237,0.77859 -0.634299,0.77806 -0.461443,0.75006 -0.461443,0.77808 -0.461443,0.77859 -0.461459,0.74953 -0.461443,0.77857 -0.461442,0.74954 -0.461443,0.95143 -0.461443,0.74953 -0.461459,0.95144 -0.461443,0.74953 -0.461443,0.92289 -0.461426,0.77858 -0.461475,0.9229 -0.461428,0.92238 -0.461442,0.92237 -0.31715,0.92288 -0.461458,0.92235 -0.461443,0.92236 -0.461443,0.92292 -0.461443,0.92292 -0.31715,1.09528 -0.43237,0.92271 -0.4614429,1.06677 -0.4900041,1.06659 11.850077,4.6129 -0.288604,0.77871 -0.317134,0.77812 -0.317164,0.77907 -0.288076,0.74944 -0.317134,0.77869 -0.144166,0.77794 -0.317165,0.74963 -0.288604,0.77851 -0.317134,0.77869 -0.172918,0.92236 -0.288077,0.74944 -0.172919,0.77869 -0.288061,0.92291 -0.144165,0.77852 -0.31715,0.77812 -0.172919,0.89385 -0.144166,0.77851 -0.144167,0.95143 -0.317132,0.74961 -0.144166,0.92236 -0.144166,0.92292 -0.17292,0.92274 -0.144165,0.92255 -0.31715,0.92236 -0.144166,0.92271 -0.172919,0.92255 -0.144166,0.92274 -0.144167,0.92253 -0.172902,0.92274 -0.144167,1.09584 -0.144166,0.92236 0,1.06657 -12.1674329,-1.38372 -0.1728395,0.92236 0,0.92235 -0.1443258,0.92292 0,0.92293 0,0.77848 -0.1443256,0.92237 0,0.92236 0,0.74961 0,0.95144 0,0.74942 0,0.92292 0,0.77872 0,0.92291 0,0.77793 0,0.89385 0,0.051 0,0.74961 0,0.17178 0,0.74944 0,0.051 0,0.89384 0,0.77869 0,0.92236 0,0.77851 0,0.92234 0,0.7502 0,0.95086 0,0.75 0,0.92237 0.1443256,0.92233 0,0.7787 0,0.92292 0.1443258,0.92237 0,0.92292 0.1728395,0.92235 12.1674329,-1.38391 0,1.06676 0.144166,0.92273 0.144167,1.09528 0.172902,0.92292 0.144167,0.92235 0.144166,0.92293 0.172919,0.92235 0.144166,0.92292 0.31715,0.92235 0.144165,0.92236 0.17292,0.92291 0.144166,0.92235 0.144166,0.92292 0.317132,0.74945 0.144167,0.95143 0.144166,0.77868 0.172919,0.89385 0.31715,0.77794 0.144165,0.7787 0.288061,0.92292 0.172919,0.77851 0.288077,0.74963 0.172918,0.92235 0.317134,0.7785 0.288604,0.77813 0.317165,0.75001 0.144166,0.77813 0.317134,0.7785 0.288076,0.74963 0.317164,0.77851 0.317134,0.77869 0.288604,0.77852 -11.850077,4.6129 0.4900041,1.06676 0.4614429,1.06657 0.43237,0.92294 0.31715,1.09526 0.461443,0.92274 0.461443,0.92254 0.461443,0.92273 0.461458,0.92293 0.31715,0.92233 0.461442,0.92237 0.461428,0.92292 0.461475,0.92236 0.461426,0.77867 0.461443,0.92237 0.461443,0.75 0.461459,0.95085 0.461443,0.75021 0.461443,0.95086 0.461442,0.74942 0.461443,0.7787 0.461459,0.75001 0.461443,0.7787 0.461443,0.77794 0.461443,0.74999 0.634299,0.77814 0.43237,0.77869 0.490004,0.77793 0.461443,0.6058 0.461443,0.7496 0.605497,0.7786 0.461427,0.6052 0.461443,0.7786 10.322221,-7.55398 0.605497,0.77869 0.634282,0.77852 0.461443,0.77813 0.605433,0.7785 0.63433,0.74964 0.60545,0.7785 0.605497,0.6052 0.634283,0.7788 0.461443,0.6054 0.605496,0.7788 0.605418,0.6051 0.634298,0.6344 0.605481,0.7496 0.634298,0.6342 0.43237,0.6053 0.6343,0.6056 0.605481,0.4621 0.634297,0.6343 0.605482,0.6051 0.461459,0.6059 0.605416,0.4619 0.634299,0.6349 0.605481,0.4618 0.605498,0.6059 0.461443,0.4618 0.634282,0.6343 0.605433,0.4309 0.605497,0.4879 0.634283,0.6057 0.461443,0.462 0.605497,0.462 0.634283,0.4619 -8.159429,10.0054 0.922631,0.6052 0.749631,0.7786 0.922583,0.6051 0.922631,0.7788 0.778431,0.6342 0.92263,0.6054 0.778434,0.6051 0.922646,0.6059 0.778432,0.6342 0.922614,0.6058 0.922631,0.4618 0.778432,0.6343 0.922646,0.6053 0.922631,0.4619 0.74963,0.6052 0.922584,0.462 0.92263,0.6344 0.778432,0.462 0.922646,0.4619 0.922616,0.4619 0.922582,0.6053 0.77848,0.4618 0.922583,0.4621 0.922646,0.462 0.922631,0.462 0.922582,0.4619 0.922614,0.4619 0.92263,0.4619 0.922583,0.4879 0.922647,0.2856 0.922613,0.4618 0.922583,0.4623 5.247417,-12.1674 0.778434,0.462 0.92263,0.3165 0.922614,0.4619 0.922583,0.2855 0.749631,0.3167 0.951447,0.3166 0.749584,0.3166 0.951416,0.2856 0.749647,0.3165 0.749567,0.3167 0.951447,0.1452 0.749656,0.3166 0.778432,0.1452 0.92263,0.3167 0.778433,0.1453 0.778432,0.3167 0.922646,0.1452 0.749615,0.3166 0.778433,0.1454 0.922647,0.1754 0.77848,0.1454 0.922582,0.1452 0.778497,0.3168 0.922582,0.1453 0.778478,0.1453 0.893785,0.1717 0.92262,0.1454 0.77844,0.1453 0.92265,0.1755 0.92257,0.1452 0.92263,0.1455 1.09557,0.1452 -1.84522,12.9448 1.06674,0.1453 0.92263,0.1717 0.92263,0.1453 0.92258,0 1.09562,0.1452 0.92258,0.1719 0.92266,0 0.92263,0.1452 0.92258,0 0.92261,0.1719 0.92265,0 0.92258,0 0.92263,0 0.92261,0.1452 0.92258,0 0.77851,0 0.92258,0 0.92262,0 0.92263,0 0.92258,0 0.92264,0 0.92263,0 0.77843,-0.1452 0.89376,0 0.95144,0 0.92259,-0.1719 0.92265,0 0.92261,-0.1452 0.92259,0 0.92263,-0.1719 0.92265,-0.1452 0.92257,0 -1.38393,-13.4061 0.92263,-0.1454 1.09564,-0.1452 0.92258,-0.1453 0.92264,0 1.06671,-0.1756 0.92263,-0.2854 1.06673,-0.1719 0.92261,-0.1452 1.0956,-0.1453 0.92263,-0.1453 0.92258,-0.3165 1.06672,-0.1453 0.92263,-0.3165 0.92265,-0.1775 0.92258,-0.2858 1.09563,-0.3165 0.92258,-0.1452 0.92263,-0.3166 0.9226,-0.3167 0.92267,-0.2855 0.92256,-0.3165 0.92263,-0.3167 0.95138,-0.2856 0.89382,-0.3165 0.92266,-0.3166 0.92255,-0.462 0.92266,-0.3167 0.77843,-0.2854 0.92264,-0.462 0.92262,-0.3166 0.77845,-0.4618 0.92261,-0.2858 5.24737,12.3118 0.92263,-0.3165 0.92263,-0.4622 0.7496,-0.4619 0.92259,-0.3166 0.77849,-0.4619 0.92257,-0.462 0.7785,-0.2856 0.74958,-0.4619 0.92262,-0.488 0.77846,-0.4619 0.77846,-0.2854 0.74964,-0.462 0.80731,-0.4619 0.74957,-0.4622 0.92263,-0.4618 0.77842,-0.4621 0.60551,-0.4618 0.77843,-0.462 0.74964,-0.4619 0.77847,-0.488 0.77842,-0.4308 0.77846,-0.4619 0.60548,-0.488 0.7785,-0.4619 0.60543,-0.6053 0.77851,-0.462 0.60541,-0.4621 0.77847,-0.4618 0.6343,-0.6059 0.74963,-0.4618 0.6343,-0.4619 0.60544,-0.6349 -8.15938,-10.7534 0.77844,-0.4619 0.60547,-0.6343 0.74963,-0.6057 0.77843,-0.462 0.77844,-0.6052 0.6343,-0.6343 0.74968,-0.7497 0.77843,-0.6342 0.74963,-0.6051 0.60549,-0.6059 0.77844,-0.7785 0.77842,-0.6342 0.74963,-0.7497 0.63425,-0.7785 0.77849,-0.6052 0.77843,-0.7788 0.6055,-0.7784 0.77843,-0.7781 0.60547,-0.6059 0.60545,-0.7785 0.77848,-0.7495 0.63429,-0.7785 0.60544,-0.7781 0.60548,-0.6056 0.60543,-0.7497 0.63435,-0.77848 0.46144,-0.77814 0.60546,-0.60578 0.48997,-0.77813 0.60544,-0.63466 0.46144,-0.74963 0.46144,-0.60521 10.7835,7.98633 0.6055,-0.7496 0.46144,-0.7786 0.63428,-0.6342 0.4324,-0.7497 0.48997,-0.7785 0.60551,-0.7494 0.46144,-0.7787 0.46145,-0.77813 0.60548,-0.92273 0.46144,-0.7787 0.46144,-0.74943 0.46145,-0.92292 0.46145,-0.77812 0.46144,-0.77852 0.46145,-0.92234 0.46142,-0.77872 0.49001,-0.92292 0.43238,-0.74942 0.49,-0.92237 0.46144,-0.77868 0.43238,-0.92236 0.31713,-0.77852 0.46144,-0.92292 0.31715,-0.74961 0.46144,-0.92236 0.31715,-0.7785 0.46144,-0.7787 0.28862,-0.92274 0.31715,-0.77812 0.28858,-0.74962 0.34622,-0.77852 0.28861,-0.77812 -12.4553,-5.04577 0.43236,-0.95142 0.31717,-0.92234 0.31715,-0.92295 0.31713,-0.92292 0.28861,-0.92235 0.31712,-1.06658 0.31717,-0.92291 0.28861,-0.92236 0.31713,-0.92235 0.31715,-0.92293 0.28861,-0.92234 0.1729,-1.09585 0.2886,-0.92291 0.31715,-0.92235 0.14417,-0.92236 0.31717,-0.92292 0.14416,-0.92237 0.14416,-0.92291 0.31714,-0.92292 0.17293,-0.92236 0.14417,-0.92271 0.14417,-0.92255 0.17291,-0.92235 0.11511,-0.92275 0.17292,-0.92253 0,-0.95142 0.1729,-0.75001 0.14416,-0.92236 0,-0.92235 0.17293,-0.92293 0,-0.77812 0,-0.92273 13.23401,1.23988 0.14416,-0.92273 0,-0.7787 0.17292,-0.92237 0,-0.92292 0.14417,-0.92233 0,-0.92237 0,-0.92291 0,-0.92236 0,-0.92292 0,-0.92292 0,-0.92236 0,-0.92235 0,-0.92292 -0.026,-0.22842 0.026,-0.22821 0,-0.92295 0,-0.92234 0,-0.92291 0,-0.92236 0,-0.92236 0,-0.92292 0,-0.92236 0,-0.92291 -0.14417,-0.92236 0,-0.92292 -0.17292,-0.92235 0,-0.7787 -0.14416,-0.92236 -13.23401,1.23951 0,-0.92235 0,-0.77852 -0.17293,-0.92235 0,-0.92293 -0.14416,-0.92292 -0.1729,-0.74944 0,-0.95105 -0.17292,-0.92291 -0.11511,-0.92234 -0.17291,-0.92294 -0.14417,-0.92234 -0.14417,-0.92274 -0.17293,-0.92254 -0.31714,-0.92273 -0.14416,-0.92236 -0.14416,-0.92254 -0.31717,-0.92273 -0.14417,-0.92291 -0.31715,-0.92237 -0.2886,-0.92292 -0.1729,-1.09528 -0.28861,-0.92291 -0.31715,-0.92234 -0.31713,-0.92294 -0.28861,-0.92234 -0.31717,-0.92292 -0.31712,-1.06659 -0.28861,-0.92235 -0.31713,-0.92292 -0.31715,-0.92235 -0.31717,-0.92235 -0.43236,-0.952 12.4553,-5.04539 -0.28861,-0.7785 -0.34622,-0.77851 -0.28858,-0.74963 -0.31715,-0.77849 -0.28862,-0.92236 -0.46144,-0.77871 -0.31715,-0.77849 -0.46144,-0.92237 -0.31715,-0.74959 -0.46144,-0.92238 -0.31713,-0.7786 -0.43238,-0.92289 -0.46144,-0.7786 -0.49,-0.92237 -0.43238,-0.74951 -0.49001,-0.9229 -0.46142,-0.77807 -0.46145,-0.92289 -0.46144,-0.7786 -0.46145,-0.77858 -0.46145,-0.92238 -0.46144,-0.74953 -0.46144,-0.77858 -0.60548,-0.92237 -0.46145,-0.77861 -0.46144,-0.77858 -0.60551,-0.74954 -0.48997,-0.77857 -0.4324,-0.74953 -0.63428,-0.63429 -0.46144,-0.77859 -0.6055,-0.74953 -10.7835,7.98627 -0.46144,-0.60523 -0.46144,-0.75004 -0.60544,-0.63376 -0.48997,-0.77861 -0.60546,-0.60521 -0.46144,-0.77859 -0.63435,-0.77859 -0.60543,-0.74953 -0.60548,-0.60574 -0.60544,-0.77859 -0.63429,-0.77809 -0.77848,-0.75003 -0.60545,-0.77809 -0.60547,-0.60574 -0.77843,-0.77808 -0.6055,-0.77857 -0.77843,-0.77861 -0.77849,-0.60522 -0.63425,-0.77859 -0.74963,-0.74953 -0.77842,-0.63427 -0.77844,-0.77861 -0.60549,-0.60524 -0.74963,-0.60575 -0.77843,-0.63428 -0.74968,-0.74951 -0.6343,-0.63429 -0.77844,-0.60576 -0.77843,-0.46196 -0.74963,-0.60523 -0.60547,-0.63429 -0.77844,-0.46196 8.15938,-10.75392 -0.60544,-0.63429 -0.6343,-0.46197 -0.74963,-0.46196 -0.6343,-0.60573 -0.77847,-0.46198 -0.60541,-0.46196 -0.77851,-0.46197 -0.60543,-0.60523 -0.7785,-0.46196 -0.60548,-0.48791 -0.77846,-0.46197 -0.77842,-0.43081 -0.77847,-0.48794 -0.74964,-0.46195 -0.77843,-0.46198 -0.60551,-0.46196 -0.77842,-0.46196 -0.92263,-0.46196 -0.74957,-0.46198 -0.80731,-0.46197 -0.74964,-0.46195 -0.77846,-0.28548 -0.77846,-0.46196 -0.92262,-0.48793 -0.74958,-0.46196 -0.7785,-0.28547 -0.92257,-0.46197 -0.77849,-0.46197 -0.92259,-0.31663 -0.7496,-0.46196 -0.92263,-0.46197 -0.92263,-0.31664 -5.24737,12.3111 -0.92261,-0.28547 -0.77845,-0.46197 -0.92262,-0.31662 -0.92264,-0.46198 -0.77843,-0.28547 -0.92266,-0.31664 -0.92255,-0.46196 -0.92266,-0.31661 -0.89382,-0.31663 -0.95138,-0.2855 -0.92263,-0.31662 -0.92256,-0.31664 -0.92267,-0.28547 -0.9226,-0.31662 -0.92263,-0.31664 -0.92258,-0.14527 -1.09563,-0.31665 -0.92258,-0.28546 -0.92265,-0.17122 -0.92263,-0.31662 -1.06672,-0.14527 -0.92258,-0.31664 -0.92263,-0.14528 -1.0956,-0.14528 -0.92261,-0.14529 -1.06673,-0.17651 -0.92263,-0.28547 -1.06671,-0.17123 -0.92264,0 -0.92258,-0.14528 -1.09564,-0.14528 -0.92263,-0.14528 1.38393,-13.40634 -0.92257,0 -0.92265,-0.14529 -0.92263,-0.17122 -0.92259,0 -0.92261,-0.14529 -0.92265,0 -0.92259,-0.17123 -0.95144,0 -0.89376,0 -0.775,-0.19202 -0.92259,0 -0.92262,0 -0.92265,0 -0.92257,0 -0.92262,0 -0.92263,0 -0.77844,0 -0.92265,0 z m 2.47953,31.71518 4.93026,0.14528 4.72843,0.31662 4.81492,0.77808 4.75717,0.92288 4.78607,1.23952 4.61313,1.52812 4.61305,1.67243 4.61304,2.01811 4.32482,2.30618 4.46897,2.62438 4.15175,2.76762 4.00765,3.2291 4.00766,3.22908 3.83457,3.69051 3.54632,4.00768 3.54632,4.15198 -0.31714,0 c 3.19691,4.13023 6.0449,8.53604 8.47649,13.20445 l 0,-0.11895 0.49,1.09586 c 5.8021,11.48828 9.14236,24.4218 9.37009,38.11516 l -0.026,0 c 0.0208,0.69713 0.0467,1.40145 0.0577,2.10484 -0.01,0.7028 -0.0363,1.40713 -0.0577,2.10427 l 0.026,0 c -0.22787,13.69334 -3.56824,26.62669 -9.37009,38.11515 l -0.49,1.09566 0,-0.11894 c -2.43159,4.66841 -5.2795,9.07479 -8.47649,13.20442 l 0.31714,0 -3.54632,4.15192 -3.54632,4.0077 -3.83457,3.69054 -4.00766,3.22912 -4.00765,3.2291 -4.15175,2.7676 -4.46897,2.6238 -4.32482,2.3067 -4.61304,2.0181 -4.61305,1.672 -4.61313,1.528 -4.78607,1.2402 -4.75717,0.9223 -4.81492,0.7785 -4.72843,0.3167 -4.93026,0.1454 -4.78607,-0.1454 -4.93025,-0.3167 -4.78607,-0.7785 -4.75719,-0.9223 -4.786061,-1.2402 -4.61312,-1.528 -4.613065,-1.672 -4.641873,-2.0181 -4.295906,-2.451 -4.468954,-2.4789 -4.151772,-2.9125 -4.151757,-3.0848 -3.863441,-3.54683 -3.83456,-3.68997 -3.719226,-3.97921 -3.373277,-4.17985 0.17292,0 c -3.219117,-4.19873 -6.045552,-8.68855 -8.47653,-13.43546 l -0.03113,0.20255 -0.374783,-1.0092 C 35.68512,960.76621 32.375578,947.97028 32.147723,934.42268 l 0.02586,0 c -0.02076,-0.69752 -0.04662,-1.40147 -0.05763,-2.10465 0.0096,-0.70338 0.03624,-1.4077 0.05763,-2.10485 l -0.02586,0 c 0.230458,-13.54234 3.539633,-26.34806 9.226143,-37.74044 l 0.374784,-1.00901 0.03113,0.20238 c 2.431073,-4.74694 5.257414,-9.23675 8.476529,-13.43489 l -0.172918,0 3.373275,-4.18053 3.719227,-3.97913 3.83456,-3.68999 3.863442,-3.54676 4.151756,-3.08478 4.151771,-2.91191 4.468955,-2.47956 4.295906,-2.45053 4.641874,-2.01861 4.613064,-1.67189 4.61312,-1.52812 4.786067,-1.23953 4.75719,-0.92286 4.78606,-0.77861 4.93025,-0.31661 4.78607,-0.14529 z" />
  </g>
</svg>
