<?xml version="1.0" encoding="UTF-8" standalone="no"?>
<!-- Created with Inkscape (http://www.inkscape.org/) -->
<svg xmlns:rdf="http://www.w3.org/1999/02/22-rdf-syntax-ns#" xmlns="http://www.w3.org/2000/svg" xmlns:cc="http://web.resource.org/cc/" xmlns:dc="http://purl.org/dc/elements/1.1/" xmlns:svg="http://www.w3.org/2000/svg" xmlns:inkscape="http://www.inkscape.org/namespaces/inkscape" xmlns:sodipodi="http://sodipodi.sourceforge.net/DTD/sodipodi-0.dtd" xmlns:ns1="http://sozi.baierouge.fr" xmlns:xlink="http://www.w3.org/1999/xlink" id="svg548" viewBox="0 0 992.13 496.06" version="1.0" y="0" x="0" inkscape:version="0.91 r13725">
  <g id="g561" transform="matrix(1.4607 0 0 1.0938 -53.216 -250.06)">
    <rect id="rect552" style="fill-rule:evenodd;stroke-width:1pt;fill:#00c4ff" height="151.05" width="677.88" y="229.8" x="37.969"/>
    <rect id="rect554" style="fill-rule:evenodd;stroke-width:1pt;fill:#ffffff" height="151.05" width="677.88" y="380.23" x="37.969"/>
    <rect id="rect555" style="fill-rule:evenodd;stroke-width:1pt;fill:#00c4ff" height="151.05" width="677.88" y="530.67" x="37.969"/>
  </g>
  <g id="g904" transform="translate(160.29 4.1363)">
    <path id="path598" style="stroke-opacity:.38662;fill-rule:evenodd;stroke:#000000;stroke-width:.625;fill:#ffd600" transform="matrix(1.0193 0 0 1.0038 -26.198 18.075)" d="m382.49 221.33a26.499 26.37 0 1 1 -53 0 26.499 26.37 0 1 1 53 0z"/>
    <path id="path561" style="stroke-opacity:.38662;stroke:#000000;stroke-width:.5;fill:none" transform="matrix(.78705 0 0 .76270 57.458 72.384)" d="m364.43 195.28c-4.34-1.05-8.78 0.42-10.18 0.32-1.93 0-6.79-1.68-10.19 0"/>
    <path id="path562" style="stroke-opacity:.38662;stroke:#000000;stroke-width:.5;fill:none" transform="matrix(.78705 0 0 .76270 57.458 72.384)" d="m338.71 200.49c4.31-3.01 9.12 1.08 10.4 0.31 3.49-2.29 6.73-1.87 10.08 0.21 2.15 1.27 5.91-3.71 10.29 0.32"/>
    <path id="path564" style="stroke-opacity:.38662;fill-rule:evenodd;stroke:#000000;stroke-width:.5;fill:#efc000" transform="matrix(.78705 0 0 .76270 57.458 72.384)" d="m333.88 205.63c2.28-1.85 9.7-1.92 17.33 2.42 1.15-0.28 1.89-1.09 0.94-2.21-5.74-1.99-12.42-4.51-18.58-2.62-1.68 1.19-1.26 1.96 0.31 2.41z"/>
    <path id="path565" style="stroke-opacity:.38662;fill-rule:evenodd;stroke:#000000;stroke-width:.5;fill:#efc000" transform="matrix(-.78705 0 0 .76270 614.99 72.384)" d="m333.88 205.63c2.28-1.85 9.7-1.92 17.33 2.42 1.15-0.28 1.89-1.09 0.94-2.21-5.74-1.99-12.42-4.51-18.58-2.62-1.68 1.19-1.26 1.96 0.31 2.41z"/>
    <path id="path569" style="stroke-linejoin:round;stroke-opacity:.38662;fill-rule:evenodd;stroke:#000000;stroke-width:.625;fill:#f0bf00" transform="matrix(.78705 0 0 .76270 57.458 72.384)" d="m330.84 211.83c7.52-4.83 17.46-2.31 21.63 0.31-6.09-1.15-6.2-1.68-10.61-1.78-3.11 0.1-7.7-0.21-11.02 1.47z"/>
    <path id="path570" style="stroke-opacity:.38662;stroke:#000000;stroke-width:.625;fill:none" transform="matrix(.78705 0 0 .76270 57.458 72.384)" d="m348.06 211.3c-3.68 7.67-10.08 7.77-14.6-0.42"/>
    <path id="path571" style="fill-rule:evenodd;fill:#000000;fill-opacity:.36803" transform="matrix(.85295 .12338 -.92423 1.011 231.88 -22.52)" d="m345.54 212.88a3.6748 1.6799 0 1 1 -7.35 0 3.6748 1.6799 0 1 1 7.35 0z"/>
    <path id="path572" style="fill-rule:evenodd;fill:#ffd700" transform="matrix(1.0476 -.34283 .38138 .94175 -115.92 151.91)" d="m344.07 212.56a0.73497 0.41998 0 1 1 -1.47 0 0.73497 0.41998 0 1 1 1.47 0z"/>
    <path id="path573" style="stroke-opacity:.38662;stroke:#000000;stroke-width:.625;fill:none" transform="matrix(.78705 0 0 .76270 57.458 72.384)" d="m349.18 224.5c-4.24 7.12 1.54 2.1 2.48 4.16 1.65 1.91 3.3 1.46 4.27 0 0.98-1.65 7.13 3.11 2.93-3.94"/>
    <path id="path574" style="stroke-linejoin:round;stroke-opacity:.38662;stroke:#000000;stroke-linecap:round;stroke-width:.625;fill:none" transform="matrix(.78705 0 0 .76270 57.458 72.384)" d="m341.64 236.31c3.64-0.41 9.76-3.19 11.93-0.9 1.88-2.06 8.48 0.6 12.72 0.9-3.08 1.88-9.31 0.6-12.27 2.59-2.89-1.76-9.26-0.15-12.38-2.59z"/>
    <path id="path575" style="stroke-linejoin:round;stroke-opacity:.38662;stroke:#000000;stroke-width:.625;fill:none" transform="matrix(.78705 0 0 .76270 57.458 72.384)" d="m347.5 239.58c5.51 2.25 6.75 1.91 12.71 0.22-1.24 3.26-4.4 3.95-6.19 3.83-1.86-0.12-4.39 0.11-6.52-4.05z"/>
    <path id="path599" style="stroke-linejoin:round;stroke-opacity:.38662;fill-rule:evenodd;stroke:#000000;stroke-width:.625;fill:#ffd700" transform="matrix(.78705 0 0 .76270 57.458 72.384)" d="m343.17 258.06c-3.98 10.41 0.38 15.36-1.57 20.96-1.87 5.4-10.02 18.78-3.82 24.59 4.93 0.23-0.85-7.37 9.01-21.45 4.58-6.6-1.19-10.77 3.63-23.71 0.45-1.11-6.62-2.03-7.25-0.39z"/>
    <path id="path600" style="stroke-linejoin:round;stroke-opacity:.38662;fill-rule:evenodd;stroke:#000000;stroke-width:.625;fill:#ffd700" transform="matrix(.78705 0 0 .76270 64.243 72.907)" d="m342.97 258.16c-1.53 11.68-0.62 47.58 3.04 46.14 4.05 1.3 4.58-35.16 4.21-45.95-0.05-1.19-7.04-1.93-7.25-0.19z"/>
    <path id="path605" style="stroke-linejoin:round;stroke-opacity:.38662;stroke:#000000;stroke-width:.625;fill:none" transform="matrix(-.56256 -.53340 -.55044 .54515 657.14 309.12)" d="m343.17 258.06c-3.98 10.41 0.38 15.36-1.57 20.96-1.87 5.4-10.02 18.78-3.82 24.59 4.93 0.23-0.85-7.37 9.01-21.45 4.58-6.6-1.19-10.77 3.63-23.71 0.45-1.11-6.62-2.03-7.25-0.39z"/>
    <path id="path607" style="stroke-linejoin:round;stroke-opacity:.38662;stroke:#000000;stroke-width:.625;fill:none" transform="matrix(.55074 .54486 -.56226 .53369 265.32 -69.993)" d="m343.17 258.06c-3.98 10.41 0.38 15.36-1.57 20.96-1.87 5.4-10.02 18.78-3.82 24.59 4.93 0.23-0.85-7.37 9.01-21.45 4.58-6.6-1.19-10.77 3.63-23.71 0.45-1.11-6.62-2.03-7.25-0.39z"/>
    <path id="path609" style="stroke-linejoin:round;stroke-opacity:.38662;stroke:#000000;stroke-width:.625;fill:none" transform="matrix(-.0045306 -.76268 -.78704 .0043904 511.37 509.69)" d="m343.17 258.06c-3.98 10.41 0.38 15.36-1.57 20.96-1.87 5.4-10.02 18.78-3.82 24.59 4.93 0.23-0.85-7.37 9.01-21.45 4.58-6.6-1.19-10.77 3.63-23.71 0.45-1.11-6.62-2.03-7.25-0.39z"/>
    <path id="path612" style="stroke-linejoin:round;stroke-opacity:.38662;stroke:#000000;stroke-width:.625;fill:none" transform="matrix(-.72199 -.30364 -.31333 .69965 656.38 192.05)" d="m342.97 258.16c-1.53 11.68-0.62 47.58 3.04 46.14 4.05 1.3 4.58-35.16 4.21-45.95-0.05-1.19-7.04-1.93-7.25-0.19z"/>
    <path id="path613" style="stroke-linejoin:round;stroke-opacity:.38662;stroke:#000000;stroke-width:.625;fill:none" transform="matrix(-.56065 -.53529 -.55238 .54330 651.5 306.4)" d="m342.97 258.16c-1.53 11.68-0.62 47.58 3.04 46.14 4.05 1.3 4.58-35.16 4.21-45.95-0.05-1.19-7.04-1.93-7.25-0.19z"/>
    <path id="path616" style="stroke-linejoin:round;stroke-opacity:.38662;stroke:#000000;stroke-width:.625;fill:none" transform="matrix(-.30753 -.70206 -.72448 .29802 602.06 417.74)" d="m342.97 258.16c-1.53 11.68-0.62 47.58 3.04 46.14 4.05 1.3 4.58-35.16 4.21-45.95-0.05-1.19-7.04-1.93-7.25-0.19z"/>
    <path id="path617" style="stroke-opacity:.081784;stroke:#000000;stroke-width:.625;fill:none" transform="matrix(.78705 0 0 .76270 57.458 72.384)" d="m349.18 224.5c-4.24 7.12 1.54 2.1 2.48 4.16 1.65 1.91 3.3 1.46 4.27 0 0.98-1.65 7.13 3.11 2.93-3.94"/>
    <path id="path618" style="stroke-linejoin:round;stroke-opacity:.081784;fill-rule:evenodd;stroke:#000000;stroke-linecap:round;stroke-width:.625;fill:#f0bf00" transform="matrix(.78705 0 0 .76270 57.458 72.384)" d="m341.64 236.31c3.64-0.41 9.76-3.19 11.93-0.9 1.88-2.06 8.48 0.6 12.72 0.9-3.08 1.88-9.31 0.6-12.27 2.59-2.89-1.76-9.26-0.15-12.38-2.59z"/>
    <path id="path619" style="stroke-linejoin:round;stroke-opacity:.081784;fill-rule:evenodd;stroke:#000000;stroke-width:.625;fill:#f0bf00" transform="matrix(.78705 0 0 .76270 57.458 72.384)" d="m347.5 239.58c5.51 2.25 6.75 1.91 12.71 0.22-1.24 3.26-4.4 3.95-6.19 3.83-1.86-0.12-4.39 0.11-6.52-4.05z"/>
    <path id="path630" style="stroke-linejoin:round;stroke-opacity:.14870;fill-rule:evenodd;stroke:#000000;stroke-width:.625;fill:#ffd700" transform="matrix(-.56256 -.53340 -.55044 .54515 657.14 309.12)" d="m343.17 258.06c-3.98 10.41 0.38 15.36-1.57 20.96-1.87 5.4-10.02 18.78-3.82 24.59 4.93 0.23-0.85-7.37 9.01-21.45 4.58-6.6-1.19-10.77 3.63-23.71 0.45-1.11-6.62-2.03-7.25-0.39z"/>
    <path id="path632" style="stroke-linejoin:round;stroke-opacity:.14870;fill-rule:evenodd;stroke:#000000;stroke-width:.625;fill:#ffd700" transform="matrix(.55074 .54486 -.56226 .53369 265.32 -69.993)" d="m343.17 258.06c-3.98 10.41 0.38 15.36-1.57 20.96-1.87 5.4-10.02 18.78-3.82 24.59 4.93 0.23-0.85-7.37 9.01-21.45 4.58-6.6-1.19-10.77 3.63-23.71 0.45-1.11-6.62-2.03-7.25-0.39z"/>
    <path id="path634" style="stroke-linejoin:round;stroke-opacity:.14870;fill-rule:evenodd;stroke:#000000;stroke-width:.625;fill:#ffd700" transform="matrix(-.0045306 -.76268 -.78704 .0043904 511.37 509.69)" d="m343.17 258.06c-3.98 10.41 0.38 15.36-1.57 20.96-1.87 5.4-10.02 18.78-3.82 24.59 4.93 0.23-0.85-7.37 9.01-21.45 4.58-6.6-1.19-10.77 3.63-23.71 0.45-1.11-6.62-2.03-7.25-0.39z"/>
    <path id="path637" style="stroke-linejoin:round;stroke-opacity:.14870;fill-rule:evenodd;stroke:#000000;stroke-width:.625;fill:#ffd700" transform="matrix(-.72199 -.30364 -.31333 .69965 656.38 192.05)" d="m342.97 258.16c-1.53 11.68-0.62 47.58 3.04 46.14 4.05 1.3 4.58-35.16 4.21-45.95-0.05-1.19-7.04-1.93-7.25-0.19z"/>
    <path id="path638" style="stroke-linejoin:round;stroke-opacity:.14870;fill-rule:evenodd;stroke:#000000;stroke-width:.625;fill:#ffd700" transform="matrix(-.56065 -.53529 -.55238 .54330 651.5 306.4)" d="m342.97 258.16c-1.53 11.68-0.62 47.58 3.04 46.14 4.05 1.3 4.58-35.16 4.21-45.95-0.05-1.19-7.04-1.93-7.25-0.19z"/>
    <path id="path641" style="stroke-linejoin:round;stroke-opacity:.14870;fill-rule:evenodd;stroke:#000000;stroke-width:.625;fill:#ffd700" transform="matrix(-.30753 -.70206 -.72448 .29802 602.06 417.74)" d="m342.97 258.16c-1.53 11.68-0.62 47.58 3.04 46.14 4.05 1.3 4.58-35.16 4.21-45.95-0.05-1.19-7.04-1.93-7.25-0.19z"/>
    <path id="path602" style="stroke-linejoin:round;stroke-opacity:.38662;fill-rule:evenodd;stroke:#000000;stroke-width:.625;fill:#ffd700" transform="matrix(-1.4457e-16 -.76270 .78705 -1.401e-16 164.06 504.41)" d="m342.97 258.16c-1.53 11.68-0.62 47.58 3.04 46.14 4.05 1.3 4.58-35.16 4.21-45.95-0.05-1.19-7.04-1.93-7.25-0.19z"/>
    <path id="path604" style="stroke-linejoin:round;stroke-opacity:.38662;fill-rule:evenodd;stroke:#000000;stroke-width:.625;fill:#ffd700" transform="matrix(-.78705 0 0 .76270 616.04 72.778)" d="m343.17 258.06c-3.98 10.41 0.38 15.36-1.57 20.96-1.87 5.4-10.02 18.78-3.82 24.59 4.93 0.23-0.85-7.37 9.01-21.45 4.58-6.6-1.19-10.77 3.63-23.71 0.45-1.11-6.62-2.03-7.25-0.39z"/>
    <path id="path606" style="stroke-linejoin:round;stroke-opacity:.38662;fill-rule:evenodd;stroke:#000000;stroke-width:.625;fill:#ffd700" transform="matrix(.56256 -.53340 .55044 .54515 16.584 309.51)" d="m343.17 258.06c-3.98 10.41 0.38 15.36-1.57 20.96-1.87 5.4-10.02 18.78-3.82 24.59 4.93 0.23-0.85-7.37 9.01-21.45 4.58-6.6-1.19-10.77 3.63-23.71 0.45-1.11-6.62-2.03-7.25-0.39z"/>
    <path id="path608" style="stroke-linejoin:round;stroke-opacity:.38662;fill-rule:evenodd;stroke:#000000;stroke-width:.625;fill:#ffd700" transform="matrix(-.55074 .54486 .56226 .53369 408.41 -69.796)" d="m343.17 258.06c-3.98 10.41 0.38 15.36-1.57 20.96-1.87 5.4-10.02 18.78-3.82 24.59 4.93 0.23-0.85-7.37 9.01-21.45 4.58-6.6-1.19-10.77 3.63-23.71 0.45-1.11-6.62-2.03-7.25-0.39z"/>
    <path id="path610" style="stroke-linejoin:round;stroke-opacity:.38662;fill-rule:evenodd;stroke:#000000;stroke-width:.625;fill:#ffd700" transform="matrix(.0045306 -.76268 .78704 .0043904 162.13 509.69)" d="m343.17 258.06c-3.98 10.41 0.38 15.36-1.57 20.96-1.87 5.4-10.02 18.78-3.82 24.59 4.93 0.23-0.85-7.37 9.01-21.45 4.58-6.6-1.19-10.77 3.63-23.71 0.45-1.11-6.62-2.03-7.25-0.39z"/>
    <path id="path611" style="stroke-linejoin:round;stroke-opacity:.38662;fill-rule:evenodd;stroke:#000000;stroke-width:.625;fill:#ffd700" transform="matrix(.72199 -.30364 .31333 .69965 17.304 192.45)" d="m342.97 258.16c-1.53 11.68-0.62 47.58 3.04 46.14 4.05 1.3 4.58-35.16 4.21-45.95-0.05-1.19-7.04-1.93-7.25-0.19z"/>
    <path id="path614" style="stroke-linejoin:round;stroke-opacity:.38662;fill-rule:evenodd;stroke:#000000;stroke-width:.625;fill:#ffd700" transform="matrix(.56065 -.53529 .55238 .54330 21.69 306.4)" d="m342.97 258.16c-1.53 11.68-0.62 47.58 3.04 46.14 4.05 1.3 4.58-35.16 4.21-45.95-0.05-1.19-7.04-1.93-7.25-0.19z"/>
    <path id="path615" style="stroke-linejoin:round;stroke-opacity:.38662;fill-rule:evenodd;stroke:#000000;stroke-width:.625;fill:#ffd700" transform="matrix(.30753 -.70206 .72448 .29802 71.779 417.74)" d="m342.97 258.16c-1.53 11.68-0.62 47.58 3.04 46.14 4.05 1.3 4.58-35.16 4.21-45.95-0.05-1.19-7.04-1.93-7.25-0.19z"/>
    <path id="path631" style="stroke-linejoin:round;stroke-opacity:.14870;fill-rule:evenodd;stroke:#000000;stroke-width:.625;fill:#ffd700" transform="matrix(.56256 -.53340 .55044 .54515 16.584 309.51)" d="m343.17 258.06c-3.98 10.41 0.38 15.36-1.57 20.96-1.87 5.4-10.02 18.78-3.82 24.59 4.93 0.23-0.85-7.37 9.01-21.45 4.58-6.6-1.19-10.77 3.63-23.71 0.45-1.11-6.62-2.03-7.25-0.39z"/>
    <path id="path633" style="stroke-linejoin:round;stroke-opacity:.14870;fill-rule:evenodd;stroke:#000000;stroke-width:.625;fill:#ffd700" transform="matrix(-.55074 .54486 .56226 .53369 408.41 -69.796)" d="m343.17 258.06c-3.98 10.41 0.38 15.36-1.57 20.96-1.87 5.4-10.02 18.78-3.82 24.59 4.93 0.23-0.85-7.37 9.01-21.45 4.58-6.6-1.19-10.77 3.63-23.71 0.45-1.11-6.62-2.03-7.25-0.39z"/>
    <path id="path635" style="stroke-linejoin:round;stroke-opacity:.14870;fill-rule:evenodd;stroke:#000000;stroke-width:.625;fill:#ffd700" transform="matrix(.0045306 -.76268 .78704 .0043904 162.13 509.69)" d="m343.17 258.06c-3.98 10.41 0.38 15.36-1.57 20.96-1.87 5.4-10.02 18.78-3.82 24.59 4.93 0.23-0.85-7.37 9.01-21.45 4.58-6.6-1.19-10.77 3.63-23.71 0.45-1.11-6.62-2.03-7.25-0.39z"/>
    <path id="path636" style="stroke-linejoin:round;stroke-opacity:.14870;fill-rule:evenodd;stroke:#000000;stroke-width:.625;fill:#ffd700" transform="matrix(.72199 -.30364 .31333 .69965 17.304 192.45)" d="m342.97 258.16c-1.53 11.68-0.62 47.58 3.04 46.14 4.05 1.3 4.58-35.16 4.21-45.95-0.05-1.19-7.04-1.93-7.25-0.19z"/>
    <path id="path639" style="stroke-linejoin:round;stroke-opacity:.14870;fill-rule:evenodd;stroke:#000000;stroke-width:.625;fill:#ffd700" transform="matrix(.56065 -.53529 .55238 .54330 21.69 306.4)" d="m342.97 258.16c-1.53 11.68-0.62 47.58 3.04 46.14 4.05 1.3 4.58-35.16 4.21-45.95-0.05-1.19-7.04-1.93-7.25-0.19z"/>
    <path id="path640" style="stroke-linejoin:round;stroke-opacity:.14870;fill-rule:evenodd;stroke:#000000;stroke-width:.625;fill:#ffd700" transform="matrix(.30753 -.70206 .72448 .29802 71.779 417.74)" d="m342.97 258.16c-1.53 11.68-0.62 47.58 3.04 46.14 4.05 1.3 4.58-35.16 4.21-45.95-0.05-1.19-7.04-1.93-7.25-0.19z"/>
    <path id="path686" style="stroke-linejoin:round;stroke-opacity:.38662;fill-rule:evenodd;stroke:#000000;stroke-width:.625;fill:#ffd700" transform="matrix(2.4096e-16 .76270 -.78705 2.335e-16 509.35 -23.965)" d="m342.97 258.16c-1.53 11.68-0.62 47.58 3.04 46.14 4.05 1.3 4.58-35.16 4.21-45.95-0.05-1.19-7.04-1.93-7.25-0.19z"/>
    <path id="path687" style="stroke-linejoin:round;stroke-opacity:.38662;fill-rule:evenodd;stroke:#000000;stroke-width:.625;fill:#ffd700" transform="matrix(.78705 -9.34e-17 -9.6383e-17 -.76270 57.38 407.66)" d="m343.17 258.06c-3.98 10.41 0.38 15.36-1.57 20.96-1.87 5.4-10.02 18.78-3.82 24.59 4.93 0.23-0.85-7.37 9.01-21.45 4.58-6.6-1.19-10.77 3.63-23.71 0.45-1.11-6.62-2.03-7.25-0.39z"/>
    <path id="path688" style="stroke-linejoin:round;stroke-opacity:.38662;fill-rule:evenodd;stroke:#000000;stroke-width:.625;fill:#ffd700" transform="matrix(-.56256 .53340 -.55044 -.54515 656.83 170.93)" d="m343.17 258.06c-3.98 10.41 0.38 15.36-1.57 20.96-1.87 5.4-10.02 18.78-3.82 24.59 4.93 0.23-0.85-7.37 9.01-21.45 4.58-6.6-1.19-10.77 3.63-23.71 0.45-1.11-6.62-2.03-7.25-0.39z"/>
    <path id="path689" style="stroke-linejoin:round;stroke-opacity:.38662;fill-rule:evenodd;stroke:#000000;stroke-width:.625;fill:#ffd700" transform="matrix(.55074 -.54486 -.56226 -.53369 265.01 550.24)" d="m343.17 258.06c-3.98 10.41 0.38 15.36-1.57 20.96-1.87 5.4-10.02 18.78-3.82 24.59 4.93 0.23-0.85-7.37 9.01-21.45 4.58-6.6-1.19-10.77 3.63-23.71 0.45-1.11-6.62-2.03-7.25-0.39z"/>
    <path id="path690" style="stroke-linejoin:round;stroke-opacity:.38662;fill-rule:evenodd;stroke:#000000;stroke-width:.625;fill:#ffd700" transform="matrix(-.0045306 .76268 -.78704 -.0043904 511.29 -29.254)" d="m343.17 258.06c-3.98 10.41 0.38 15.36-1.57 20.96-1.87 5.4-10.02 18.78-3.82 24.59 4.93 0.23-0.85-7.37 9.01-21.45 4.58-6.6-1.19-10.77 3.63-23.71 0.45-1.11-6.62-2.03-7.25-0.39z"/>
    <path id="path691" style="stroke-linejoin:round;stroke-opacity:.38662;fill-rule:evenodd;stroke:#000000;stroke-width:.625;fill:#ffd700" transform="matrix(-.72199 .30364 -.31333 -.69965 656.11 288)" d="m342.97 258.16c-1.53 11.68-0.62 47.58 3.04 46.14 4.05 1.3 4.58-35.16 4.21-45.95-0.05-1.19-7.04-1.93-7.25-0.19z"/>
    <path id="path692" style="stroke-linejoin:round;stroke-opacity:.38662;fill-rule:evenodd;stroke:#000000;stroke-width:.625;fill:#ffd700" transform="matrix(-.56065 .53529 -.55238 -.54330 651.73 174.04)" d="m342.97 258.16c-1.53 11.68-0.62 47.58 3.04 46.14 4.05 1.3 4.58-35.16 4.21-45.95-0.05-1.19-7.04-1.93-7.25-0.19z"/>
    <path id="path693" style="stroke-linejoin:round;stroke-opacity:.38662;fill-rule:evenodd;stroke:#000000;stroke-width:.625;fill:#ffd700" transform="matrix(-.30753 .70206 -.72448 -.29802 601.64 62.696)" d="m342.97 258.16c-1.53 11.68-0.62 47.58 3.04 46.14 4.05 1.3 4.58-35.16 4.21-45.95-0.05-1.19-7.04-1.93-7.25-0.19z"/>
    <path id="path694" style="stroke-linejoin:round;stroke-opacity:.14870;fill-rule:evenodd;stroke:#000000;stroke-width:.625;fill:#ffd700" transform="matrix(-.56256 .53340 -.55044 -.54515 656.83 170.93)" d="m343.17 258.06c-3.98 10.41 0.38 15.36-1.57 20.96-1.87 5.4-10.02 18.78-3.82 24.59 4.93 0.23-0.85-7.37 9.01-21.45 4.58-6.6-1.19-10.77 3.63-23.71 0.45-1.11-6.62-2.03-7.25-0.39z"/>
    <path id="path695" style="stroke-linejoin:round;stroke-opacity:.14870;fill-rule:evenodd;stroke:#000000;stroke-width:.625;fill:#ffd700" transform="matrix(.55074 -.54486 -.56226 -.53369 265.01 550.24)" d="m343.17 258.06c-3.98 10.41 0.38 15.36-1.57 20.96-1.87 5.4-10.02 18.78-3.82 24.59 4.93 0.23-0.85-7.37 9.01-21.45 4.58-6.6-1.19-10.77 3.63-23.71 0.45-1.11-6.62-2.03-7.25-0.39z"/>
    <path id="path696" style="stroke-linejoin:round;stroke-opacity:.14870;fill-rule:evenodd;stroke:#000000;stroke-width:.625;fill:#ffd700" transform="matrix(-.0045306 .76268 -.78704 -.0043904 511.29 -29.254)" d="m343.17 258.06c-3.98 10.41 0.38 15.36-1.57 20.96-1.87 5.4-10.02 18.78-3.82 24.59 4.93 0.23-0.85-7.37 9.01-21.45 4.58-6.6-1.19-10.77 3.63-23.71 0.45-1.11-6.62-2.03-7.25-0.39z"/>
    <path id="path697" style="stroke-linejoin:round;stroke-opacity:.14870;fill-rule:evenodd;stroke:#000000;stroke-width:.625;fill:#ffd700" transform="matrix(-.72199 .30364 -.31333 -.69965 656.11 288)" d="m342.97 258.16c-1.53 11.68-0.62 47.58 3.04 46.14 4.05 1.3 4.58-35.16 4.21-45.95-0.05-1.19-7.04-1.93-7.25-0.19z"/>
    <path id="path698" style="stroke-linejoin:round;stroke-opacity:.14870;fill-rule:evenodd;stroke:#000000;stroke-width:.625;fill:#ffd700" transform="matrix(-.56065 .53529 -.55238 -.54330 651.73 174.04)" d="m342.97 258.16c-1.53 11.68-0.62 47.58 3.04 46.14 4.05 1.3 4.58-35.16 4.21-45.95-0.05-1.19-7.04-1.93-7.25-0.19z"/>
    <path id="path699" style="stroke-linejoin:round;stroke-opacity:.14870;fill-rule:evenodd;stroke:#000000;stroke-width:.625;fill:#ffd700" transform="matrix(-.30753 .70206 -.72448 -.29802 601.64 62.696)" d="m342.97 258.16c-1.53 11.68-0.62 47.58 3.04 46.14 4.05 1.3 4.58-35.16 4.21-45.95-0.05-1.19-7.04-1.93-7.25-0.19z"/>
    <path id="path701" style="stroke-linejoin:round;stroke-opacity:.38662;fill-rule:evenodd;stroke:#000000;stroke-width:.625;fill:#ffd700" transform="matrix(-.78705 2.802e-16 -2.8915e-16 -.76270 609.13 407.52)" d="m342.97 258.16c-1.53 11.68-0.62 47.58 3.04 46.14 4.05 1.3 4.58-35.16 4.21-45.95-0.05-1.19-7.04-1.93-7.25-0.19z"/>
    <path id="path702" style="stroke-linejoin:round;stroke-opacity:.38662;fill-rule:evenodd;stroke:#000000;stroke-width:.625;fill:#ffd700" transform="matrix(1.4457e-16 .76270 .78705 -1.401e-16 163.72 -30.464)" d="m343.17 258.06c-3.98 10.41 0.38 15.36-1.57 20.96-1.87 5.4-10.02 18.78-3.82 24.59 4.93 0.23-0.85-7.37 9.01-21.45 4.58-6.6-1.19-10.77 3.63-23.71 0.45-1.11-6.62-2.03-7.25-0.39z"/>
    <path id="path703" style="stroke-linejoin:round;stroke-opacity:.38662;fill-rule:evenodd;stroke:#000000;stroke-width:.625;fill:#ffd700" transform="matrix(-.55044 -.54515 .56256 -.53340 408.01 550.44)" d="m343.17 258.06c-3.98 10.41 0.38 15.36-1.57 20.96-1.87 5.4-10.02 18.78-3.82 24.59 4.93 0.23-0.85-7.37 9.01-21.45 4.58-6.6-1.19-10.77 3.63-23.71 0.45-1.11-6.62-2.03-7.25-0.39z"/>
    <path id="path704" style="stroke-linejoin:round;stroke-opacity:.38662;fill-rule:evenodd;stroke:#000000;stroke-width:.625;fill:#ffd700" transform="matrix(.56226 .53369 .55074 -.54486 16.589 170.74)" d="m343.17 258.06c-3.98 10.41 0.38 15.36-1.57 20.96-1.87 5.4-10.02 18.78-3.82 24.59 4.93 0.23-0.85-7.37 9.01-21.45 4.58-6.6-1.19-10.77 3.63-23.71 0.45-1.11-6.62-2.03-7.25-0.39z"/>
    <path id="path705" style="stroke-linejoin:round;stroke-opacity:.38662;fill-rule:evenodd;stroke:#000000;stroke-width:.625;fill:#ffd700" transform="matrix(-.78704 -.0043904 .0045306 -.76268 614.58 409.4)" d="m343.17 258.06c-3.98 10.41 0.38 15.36-1.57 20.96-1.87 5.4-10.02 18.78-3.82 24.59 4.93 0.23-0.85-7.37 9.01-21.45 4.58-6.6-1.19-10.77 3.63-23.71 0.45-1.11-6.62-2.03-7.25-0.39z"/>
    <path id="path706" style="stroke-linejoin:round;stroke-opacity:.38662;fill-rule:evenodd;stroke:#000000;stroke-width:.625;fill:#ffd700" transform="matrix(-.31333 -.69965 .72199 -.30364 287.2 549.74)" d="m342.97 258.16c-1.53 11.68-0.62 47.58 3.04 46.14 4.05 1.3 4.58-35.16 4.21-45.95-0.05-1.19-7.04-1.93-7.25-0.19z"/>
    <path id="path707" style="stroke-linejoin:round;stroke-opacity:.38662;fill-rule:evenodd;stroke:#000000;stroke-width:.625;fill:#ffd700" transform="matrix(-.55238 -.54330 .56065 -.53529 404.79 545.49)" d="m342.97 258.16c-1.53 11.68-0.62 47.58 3.04 46.14 4.05 1.3 4.58-35.16 4.21-45.95-0.05-1.19-7.04-1.93-7.25-0.19z"/>
    <path id="path708" style="stroke-linejoin:round;stroke-opacity:.38662;fill-rule:evenodd;stroke:#000000;stroke-width:.625;fill:#ffd700" transform="matrix(-.72448 -.29802 .30753 -.70206 519.7 496.95)" d="m342.97 258.16c-1.53 11.68-0.62 47.58 3.04 46.14 4.05 1.3 4.58-35.16 4.21-45.95-0.05-1.19-7.04-1.93-7.25-0.19z"/>
    <path id="path709" style="stroke-linejoin:round;stroke-opacity:.14870;fill-rule:evenodd;stroke:#000000;stroke-width:.625;fill:#ffd700" transform="matrix(-.55044 -.54515 .56256 -.53340 408.01 550.44)" d="m343.17 258.06c-3.98 10.41 0.38 15.36-1.57 20.96-1.87 5.4-10.02 18.78-3.82 24.59 4.93 0.23-0.85-7.37 9.01-21.45 4.58-6.6-1.19-10.77 3.63-23.71 0.45-1.11-6.62-2.03-7.25-0.39z"/>
    <path id="path710" style="stroke-linejoin:round;stroke-opacity:.14870;fill-rule:evenodd;stroke:#000000;stroke-width:.625;fill:#ffd700" transform="matrix(.56226 .53369 .55074 -.54486 16.589 170.74)" d="m343.17 258.06c-3.98 10.41 0.38 15.36-1.57 20.96-1.87 5.4-10.02 18.78-3.82 24.59 4.93 0.23-0.85-7.37 9.01-21.45 4.58-6.6-1.19-10.77 3.63-23.71 0.45-1.11-6.62-2.03-7.25-0.39z"/>
    <path id="path711" style="stroke-linejoin:round;stroke-opacity:.14870;fill-rule:evenodd;stroke:#000000;stroke-width:.625;fill:#ffd700" transform="matrix(-.78704 -.0043904 .0045306 -.76268 614.58 409.4)" d="m343.17 258.06c-3.98 10.41 0.38 15.36-1.57 20.96-1.87 5.4-10.02 18.78-3.82 24.59 4.93 0.23-0.85-7.37 9.01-21.45 4.58-6.6-1.19-10.77 3.63-23.71 0.45-1.11-6.62-2.03-7.25-0.39z"/>
    <path id="path712" style="stroke-linejoin:round;stroke-opacity:.14870;fill-rule:evenodd;stroke:#000000;stroke-width:.625;fill:#ffd700" transform="matrix(-.31333 -.69965 .72199 -.30364 287.2 549.74)" d="m342.97 258.16c-1.53 11.68-0.62 47.58 3.04 46.14 4.05 1.3 4.58-35.16 4.21-45.95-0.05-1.19-7.04-1.93-7.25-0.19z"/>
    <path id="path713" style="stroke-linejoin:round;stroke-opacity:.14870;fill-rule:evenodd;stroke:#000000;stroke-width:.625;fill:#ffd700" transform="matrix(-.55238 -.54330 .56065 -.53529 404.79 545.49)" d="m342.97 258.16c-1.53 11.68-0.62 47.58 3.04 46.14 4.05 1.3 4.58-35.16 4.21-45.95-0.05-1.19-7.04-1.93-7.25-0.19z"/>
    <path id="path714" style="stroke-linejoin:round;stroke-opacity:.14870;fill-rule:evenodd;stroke:#000000;stroke-width:.625;fill:#ffd700" transform="matrix(-.72448 -.29802 .30753 -.70206 519.7 496.95)" d="m342.97 258.16c-1.53 11.68-0.62 47.58 3.04 46.14 4.05 1.3 4.58-35.16 4.21-45.95-0.05-1.19-7.04-1.93-7.25-0.19z"/>
    <path id="path577" style="stroke:#000000;stroke-width:1pt;stroke-opacity:0.171;fill:none" transform="matrix(.78705 0 0 .76270 57.865 72.976)" d="m328.14 202.55h-3.15"/>
    <path id="path578" style="stroke:#000000;stroke-width:1pt;stroke-opacity:0.171;fill:none" transform="matrix(.78705 0 0 .76270 57.245 74.52)" d="m328.14 202.55h-3.15"/>
    <path id="path579" style="stroke:#000000;stroke-width:1pt;stroke-opacity:0.171;fill:none" transform="matrix(.87138 0 0 .76270 29.308 75.979)" d="m328.14 202.55h-3.15"/>
    <path id="path580" style="stroke:#000000;stroke-width:1pt;stroke-opacity:0.171;fill:none" transform="matrix(.87137 0 0 .76270 28.514 77.353)" d="m328.14 202.55h-3.15"/>
    <path id="path581" style="stroke:#000000;stroke-width:1pt;stroke-opacity:0.171;fill:none" transform="matrix(1.04 0 0 .76270 -27.004 78.812)" d="m328.14 202.55h-3.15"/>
    <path id="path582" style="stroke:#000000;stroke-width:1pt;stroke-opacity:0.171;fill:none" transform="matrix(1.1524 0 0 .76270 -63.806 80.271)" d="m328.14 202.55h-3.15"/>
    <path id="path583" style="stroke:#000000;stroke-width:1pt;stroke-opacity:0.171;fill:none" transform="matrix(1.0962 0 0 .76270 -45.89 81.901)" d="m328.14 202.55h-3.15"/>
    <path id="path584" style="stroke:#000000;stroke-width:1pt;stroke-opacity:0.171;fill:none" transform="matrix(1.0681 0 0 .76270 -36.489 83.532)" d="m328.14 202.55h-3.15"/>
    <path id="path585" style="stroke:#000000;stroke-width:1pt;stroke-opacity:0.171;fill:none" transform="matrix(1.0962 0 0 .76270 -45.713 85.077)" d="m328.14 202.55h-3.15"/>
    <path id="path586" style="stroke:#000000;stroke-width:1pt;stroke-opacity:0.171;fill:none" transform="matrix(1.3773 0 0 .76270 -137.06 86.879)" d="m328.14 202.55h-3.15"/>
    <path id="path587" style="stroke:#000000;stroke-width:1pt;stroke-opacity:0.171;fill:none" transform="matrix(1.1805 0 0 .76270 -72.849 88.939)" d="m328.14 202.55h-3.15"/>
    <path id="path588" style="stroke:#000000;stroke-width:1pt;stroke-opacity:.078067;fill:none" transform="matrix(1.1805 0 0 .76270 -72.76 90.398)" d="m328.14 202.55h-3.15"/>
    <path id="path589" style="stroke:#000000;stroke-width:1pt;stroke-opacity:.078067;fill:none" transform="matrix(1.1805 0 0 .76270 -72.14 92.372)" d="m328.14 202.55h-3.15"/>
    <path id="path590" style="stroke:#000000;stroke-width:1pt;stroke-opacity:.078067;fill:none" transform="matrix(1.1805 0 0 .76270 -72.052 94.089)" d="m328.14 202.55h-3.15"/>
    <path id="path591" style="stroke:#000000;stroke-width:1pt;stroke-opacity:.078067;fill:none" transform="matrix(1.1805 0 0 .76270 -70.989 95.977)" d="m328.14 202.55h-3.15"/>
    <path id="path592" style="stroke:#000000;stroke-width:1pt;stroke-opacity:.078067;fill:none" transform="matrix(1.1805 0 0 .76270 -69.926 97.522)" d="m328.14 202.55h-3.15"/>
    <path id="path593" style="stroke:#000000;stroke-width:1pt;stroke-opacity:.078067;fill:none" transform="matrix(1.1805 0 0 .76270 -68.952 99.324)" d="m328.14 202.55h-3.15"/>
    <path id="path594" style="stroke:#000000;stroke-width:1pt;stroke-opacity:.078067;fill:none" transform="matrix(1.1805 0 0 .76270 -67.8 101.04)" d="m328.14 202.55h-3.15"/>
    <path id="path595" style="stroke:#000000;stroke-width:1pt;stroke-opacity:.078067;fill:none" transform="matrix(1.1805 0 0 .76270 -67.003 102.67)" d="m328.14 202.55h-3.15"/>
    <path id="path596" style="stroke:#000000;stroke-width:1pt;stroke-opacity:.078067;fill:none" transform="matrix(1.1805 0 0 .76270 -65.321 104.65)" d="m328.14 202.55h-3.15"/>
    <path id="path597" style="stroke:#000000;stroke-width:1pt;stroke-opacity:.078067;fill:none" transform="matrix(.75892 0 0 .76270 73.738 106.45)" d="m328.14 202.55h-3.15"/>
    <path id="path620" style="stroke:#000000;stroke-width:1pt;stroke-opacity:.078067;fill:none" transform="matrix(1.1805 0 0 .76270 -72.76 90.398)" d="m328.14 202.55h-3.15"/>
    <path id="path621" style="stroke:#000000;stroke-width:1pt;stroke-opacity:.078067;fill:none" transform="matrix(1.1805 0 0 .76270 -72.14 92.372)" d="m328.14 202.55h-3.15"/>
    <path id="path622" style="stroke:#000000;stroke-width:1pt;stroke-opacity:.078067;fill:none" transform="matrix(1.1805 0 0 .76270 -72.052 94.089)" d="m328.14 202.55h-3.15"/>
    <path id="path623" style="stroke:#000000;stroke-width:1pt;stroke-opacity:.078067;fill:none" transform="matrix(1.1805 0 0 .76270 -70.989 95.977)" d="m328.14 202.55h-3.15"/>
    <path id="path624" style="stroke:#000000;stroke-width:1pt;stroke-opacity:.078067;fill:none" transform="matrix(1.1805 0 0 .76270 -69.926 97.522)" d="m328.14 202.55h-3.15"/>
    <path id="path625" style="stroke:#000000;stroke-width:1pt;stroke-opacity:.078067;fill:none" transform="matrix(1.1805 0 0 .76270 -68.952 99.324)" d="m328.14 202.55h-3.15"/>
    <path id="path626" style="stroke:#000000;stroke-width:1pt;stroke-opacity:.078067;fill:none" transform="matrix(1.1805 0 0 .76270 -67.8 101.04)" d="m328.14 202.55h-3.15"/>
    <path id="path627" style="stroke:#000000;stroke-width:1pt;stroke-opacity:.078067;fill:none" transform="matrix(1.1805 0 0 .76270 -67.003 102.67)" d="m328.14 202.55h-3.15"/>
    <path id="path628" style="stroke:#000000;stroke-width:1pt;stroke-opacity:.078067;fill:none" transform="matrix(1.1805 0 0 .76270 -65.321 104.65)" d="m328.14 202.55h-3.15"/>
    <path id="path629" style="stroke:#000000;stroke-width:1pt;stroke-opacity:.078067;fill:none" transform="matrix(.75892 0 0 .76270 74.123 106.3)" d="m328.14 202.55h-3.15"/>
    <path id="path750" style="stroke-opacity:.13383;fill-rule:evenodd;fill-opacity:.86667;stroke:#000000;stroke-width:1pt;fill:#00699d" transform="matrix(-.78705 0 0 .76270 615.44 72.581)" d="m328.14 202.55h-3.15"/>
    <path id="path751" style="stroke-opacity:.13383;fill-rule:evenodd;fill-opacity:.86667;stroke:#000000;stroke-width:1pt;fill:#00699d" transform="matrix(-.78705 0 0 .76270 616.06 74.126)" d="m328.14 202.55h-3.15"/>
    <path id="path752" style="stroke-opacity:.13383;fill-rule:evenodd;fill-opacity:.86667;stroke:#000000;stroke-width:1pt;fill:#00699d" transform="matrix(-.87138 0 0 .76270 643.99 75.585)" d="m328.14 202.55h-3.15"/>
    <path id="path753" style="stroke-opacity:.13383;fill-rule:evenodd;fill-opacity:.86667;stroke:#000000;stroke-width:1pt;fill:#00699d" transform="matrix(-.87137 0 0 .76270 644.79 76.958)" d="m328.14 202.55h-3.15"/>
    <path id="path754" style="stroke-opacity:.13383;fill-rule:evenodd;fill-opacity:.86667;stroke:#000000;stroke-width:1pt;fill:#00699d" transform="matrix(-1.04 0 0 .76270 700.31 78.417)" d="m328.14 202.55h-3.15"/>
    <path id="path755" style="stroke-opacity:.13383;fill-rule:evenodd;fill-opacity:.86667;stroke:#000000;stroke-width:1pt;fill:#00699d" transform="matrix(-1.1524 0 0 .76270 737.11 79.876)" d="m328.14 202.55h-3.15"/>
    <path id="path756" style="stroke-opacity:.13383;fill-rule:evenodd;fill-opacity:.86667;stroke:#000000;stroke-width:1pt;fill:#00699d" transform="matrix(-1.0962 0 0 .76270 719.19 81.507)" d="m328.14 202.55h-3.15"/>
    <path id="path757" style="stroke-opacity:.13383;fill-rule:evenodd;fill-opacity:.86667;stroke:#000000;stroke-width:1pt;fill:#00699d" transform="matrix(-1.0681 0 0 .76270 709.79 83.138)" d="m328.14 202.55h-3.15"/>
    <path id="path758" style="stroke-opacity:.13383;fill-rule:evenodd;fill-opacity:.86667;stroke:#000000;stroke-width:1pt;fill:#00699d" transform="matrix(-1.0962 0 0 .76270 719.02 84.683)" d="m328.14 202.55h-3.15"/>
    <path id="path759" style="stroke-opacity:.13383;fill-rule:evenodd;fill-opacity:.86667;stroke:#000000;stroke-width:1pt;fill:#00699d" transform="matrix(-1.3773 0 0 .76270 810.36 86.485)" d="m328.14 202.55h-3.15"/>
    <path id="path760" style="stroke-opacity:.13383;fill-rule:evenodd;fill-opacity:.86667;stroke:#000000;stroke-width:1pt;fill:#00699d" transform="matrix(-1.1805 0 0 .76270 746.15 88.545)" d="m328.14 202.55h-3.15"/>
    <path id="path761" style="stroke-opacity:.063197;fill-rule:evenodd;fill-opacity:.86667;stroke:#000000;stroke-width:1pt;fill:#00699d" transform="matrix(-1.1805 0 0 .76270 746.06 90.004)" d="m328.14 202.55h-3.15"/>
    <path id="path762" style="stroke-opacity:.063197;fill-rule:evenodd;fill-opacity:.86667;stroke:#000000;stroke-width:1pt;fill:#00699d" transform="matrix(-1.1805 0 0 .76270 745.44 91.978)" d="m328.14 202.55h-3.15"/>
    <path id="path763" style="stroke-opacity:.063197;fill-rule:evenodd;fill-opacity:.86667;stroke:#000000;stroke-width:1pt;fill:#00699d" transform="matrix(-1.1805 0 0 .76270 745.35 93.694)" d="m328.14 202.55h-3.15"/>
    <path id="path764" style="stroke-opacity:.063197;fill-rule:evenodd;fill-opacity:.86667;stroke:#000000;stroke-width:1pt;fill:#00699d" transform="matrix(-1.1805 0 0 .76270 744.29 95.583)" d="m328.14 202.55h-3.15"/>
    <path id="path765" style="stroke-opacity:.063197;fill-rule:evenodd;fill-opacity:.86667;stroke:#000000;stroke-width:1pt;fill:#00699d" transform="matrix(-1.1805 0 0 .76270 743.23 97.128)" d="m328.14 202.55h-3.15"/>
    <path id="path766" style="stroke-opacity:.063197;fill-rule:evenodd;fill-opacity:.86667;stroke:#000000;stroke-width:1pt;fill:#00699d" transform="matrix(-1.1805 0 0 .76270 742.25 98.93)" d="m328.14 202.55h-3.15"/>
    <path id="path767" style="stroke-opacity:.063197;fill-rule:evenodd;fill-opacity:.86667;stroke:#000000;stroke-width:1pt;fill:#00699d" transform="matrix(-1.1805 0 0 .76270 741.1 100.65)" d="m328.14 202.55h-3.15"/>
    <path id="path768" style="stroke-opacity:.063197;fill-rule:evenodd;fill-opacity:.86667;stroke:#000000;stroke-width:1pt;fill:#00699d" transform="matrix(-1.1805 0 0 .76270 740.31 102.28)" d="m328.14 202.55h-3.15"/>
    <path id="path769" style="stroke-opacity:.063197;fill-rule:evenodd;fill-opacity:.86667;stroke:#000000;stroke-width:1pt;fill:#00699d" transform="matrix(-1.1805 0 0 .76270 738.62 104.25)" d="m328.14 202.55h-3.15"/>
    <path id="path770" style="stroke-opacity:.063197;fill-rule:evenodd;fill-opacity:.86667;stroke:#000000;stroke-width:1pt;fill:#00699d" transform="matrix(-.75892 0 0 .76270 599.56 106.05)" d="m328.14 202.55h-3.15"/>
    <path id="path771" style="stroke:#000000;stroke-width:1pt;stroke-opacity:.063197;fill:none" transform="matrix(-1.1805 0 0 .76270 746.06 90.004)" d="m328.14 202.55h-3.15"/>
    <path id="path772" style="stroke:#000000;stroke-width:1pt;stroke-opacity:.063197;fill:none" transform="matrix(-1.1805 0 0 .76270 745.44 91.978)" d="m328.14 202.55h-3.15"/>
    <path id="path773" style="stroke:#000000;stroke-width:1pt;stroke-opacity:.063197;fill:none" transform="matrix(-1.1805 0 0 .76270 745.35 93.694)" d="m328.14 202.55h-3.15"/>
    <path id="path774" style="stroke:#000000;stroke-width:1pt;stroke-opacity:.063197;fill:none" transform="matrix(-1.1805 0 0 .76270 744.29 95.583)" d="m328.14 202.55h-3.15"/>
    <path id="path775" style="stroke:#000000;stroke-width:1pt;stroke-opacity:.063197;fill:none" transform="matrix(-1.1805 0 0 .76270 743.23 97.128)" d="m328.14 202.55h-3.15"/>
    <path id="path776" style="stroke:#000000;stroke-width:1pt;stroke-opacity:.063197;fill:none" transform="matrix(-1.1805 0 0 .76270 742.25 98.93)" d="m328.14 202.55h-3.15"/>
    <path id="path777" style="stroke:#000000;stroke-width:1pt;stroke-opacity:.063197;fill:none" transform="matrix(-1.1805 0 0 .76270 741.1 100.65)" d="m328.14 202.55h-3.15"/>
    <path id="path778" style="stroke:#000000;stroke-width:1pt;stroke-opacity:.063197;fill:none" transform="matrix(-1.1805 0 0 .76270 740.31 102.28)" d="m328.14 202.55h-3.15"/>
    <path id="path779" style="stroke:#000000;stroke-width:1pt;stroke-opacity:.063197;fill:none" transform="matrix(-1.1805 0 0 .76270 738.62 104.25)" d="m328.14 202.55h-3.15"/>
    <path id="path780" style="stroke:#000000;stroke-width:1pt;stroke-opacity:.063197;fill:none" transform="matrix(-.75892 0 0 .76270 599.56 106.05)" d="m328.14 202.55h-3.15"/>
    <path id="path781" style="stroke-linejoin:round;stroke-opacity:.38662;fill-rule:evenodd;stroke:#000000;stroke-width:.625;fill:#f0bf00" transform="matrix(-.78705 0 0 .76270 615.8 72.187)" d="m330.84 211.83c7.52-4.83 17.46-2.31 21.63 0.31-6.09-1.15-6.2-1.68-10.61-1.78-3.11 0.1-7.7-0.21-11.02 1.47z"/>
    <path id="path782" style="stroke-opacity:.38662;stroke:#000000;stroke-width:.625;fill:none" transform="matrix(.78705 0 0 .76270 78.009 71.99)" d="m348.06 211.3c-3.68 7.67-10.08 7.77-14.6-0.42"/>
    <path id="path783" style="fill-rule:evenodd;fill:#000000;fill-opacity:.36803" transform="matrix(.88114 .11814 -.95479 .96802 249.18 -11.902)" d="m345.54 212.88a3.6748 1.6799 0 1 1 -7.35 0 3.6748 1.6799 0 1 1 7.35 0z"/>
    <path id="path784" style="fill-rule:evenodd;fill:#ffd700" transform="matrix(1.0476 -.34283 .38138 .94175 -95.366 151.52)" d="m344.07 212.56a0.73497 0.41998 0 1 1 -1.47 0 0.73497 0.41998 0 1 1 1.47 0z"/>
  </g>
  <metadata>
    <rdf:RDF>
      <cc:Work>
        <dc:format>image/svg+xml</dc:format>
        <dc:type rdf:resource="http://purl.org/dc/dcmitype/StillImage"/>
        <cc:license rdf:resource="http://creativecommons.org/licenses/publicdomain/"/>
        <dc:publisher>
          <cc:Agent rdf:about="http://openclipart.org/">
            <dc:title>Openclipart</dc:title>
          </cc:Agent>
        </dc:publisher>
        <dc:title>flag of Argentina</dc:title>
        <dc:date>2009-05-13T02:45:15</dc:date>
        <dc:description>from old OCAL site</dc:description>
        <dc:source>https://openclipart.org/detail/25978/flag-of-argentina-by-anonymous-25978</dc:source>
        <dc:creator>
          <cc:Agent>
            <dc:title>Anonymous</dc:title>
          </cc:Agent>
        </dc:creator>
        <dc:subject>
          <rdf:Bag>
            <rdf:li>argentina</rdf:li>
            <rdf:li>country</rdf:li>
            <rdf:li>flag</rdf:li>
            <rdf:li>south america</rdf:li>
          </rdf:Bag>
        </dc:subject>
      </cc:Work>
      <cc:License rdf:about="http://creativecommons.org/licenses/publicdomain/">
        <cc:permits rdf:resource="http://creativecommons.org/ns#Reproduction"/>
        <cc:permits rdf:resource="http://creativecommons.org/ns#Distribution"/>
        <cc:permits rdf:resource="http://creativecommons.org/ns#DerivativeWorks"/>
      </cc:License>
    </rdf:RDF>
  </metadata>
</svg>
